<svg width="390" height="446" viewBox="0 0 390 446" fill="none" xmlns="http://www.w3.org/2000/svg">
<path d="M413.138 23.6786C413.888 18.1718 406.132 13.6583 400.294 13.1878C397.505 12.9613 394.63 13.3969 391.981 12.4733C386.264 10.4867 383.981 3.09783 378.421 0.762676C374.256 -0.997407 369.463 0.570983 365.42 2.60989C361.377 4.6488 357.386 7.19308 352.872 7.48933C348.95 7.7333 344.681 6.2869 341.247 8.20382C338.685 9.6328 337.343 12.5779 334.991 14.3205C332.69 16.0283 329.675 16.3769 326.817 16.5337C323.959 16.6906 320.996 16.7254 318.382 17.9104C315.767 19.0954 313.624 21.8662 314.164 24.6719L413.138 23.696V23.6786Z" fill="#EBEBEB"/>
<path d="M372.524 104.278C373.831 94.7977 360.446 86.9906 350.39 86.189C345.597 85.8056 340.613 86.5375 336.064 84.9517C326.217 81.5187 322.296 68.7973 312.675 64.7543C305.495 61.7221 297.234 64.4232 290.263 67.926C283.309 71.4287 276.425 75.8376 268.634 76.343C261.872 76.7787 254.518 74.2692 248.61 77.5803C244.2 80.0374 241.882 85.126 237.821 88.1233C233.848 91.051 228.654 91.6784 223.722 91.9398C218.79 92.2012 213.684 92.2534 209.187 94.3098C204.691 96.3661 200.978 101.124 201.902 105.968L372.506 104.278H372.524Z" fill="#F5F5F5"/>
<path d="M249.328 220.741H219.165C214.576 220.741 210.829 217.015 210.829 212.406C210.829 205.334 216.555 199.609 223.627 199.609H242.234C246.149 199.609 249.328 202.787 249.328 206.702V220.741Z" fill="white"/>
<path d="M258.953 349.44H227.705C219.663 349.44 213.145 355.959 213.145 364V415.742C213.145 423.784 219.663 430.302 227.705 430.302H258.953C266.994 430.302 273.513 423.784 273.513 415.742V364C273.513 355.959 266.994 349.44 258.953 349.44Z" fill="#263238"/>
<path d="M219.291 239.704L236.845 225.624L264.609 149.392C268.734 139.899 276.733 127.692 295.109 125.84L486.401 127.524C497.241 127.629 506.902 134.427 510.628 144.614L535.487 212.68L542.306 228.149L558.514 239.473C564.723 243.829 568.428 250.922 568.428 258.52V367.712C568.428 367.712 567.628 387.79 546.748 387.79H234.235C234.235 387.79 214.155 388.59 210.934 365.291C208.387 346.812 209.882 282.808 210.619 257.152C210.808 250.333 213.986 243.956 219.291 239.704Z" fill="white"/>
<g opacity="0.3">
<path d="M209.124 317.788C211.524 318.377 568.428 317.788 568.428 317.788V366.449C568.428 378.298 559.945 387.79 548.095 387.79H236.256C221.017 387.79 209.629 376.383 209.798 361.04L209.145 317.788H209.124Z" fill="black"/>
</g>
<path d="M221.501 247.702L290.752 256.078V296.678C290.752 296.678 214.113 294.51 209.524 284.323L210.556 257.046C210.766 251.322 215.818 247.007 221.501 247.702Z" fill="#ECECEC"/>
<path d="M221.501 247.702C221.501 247.702 220.427 247.555 218.491 247.933C216.639 248.333 213.671 249.596 211.903 252.922C210.976 254.563 210.745 256.584 210.745 258.878C210.682 261.172 210.598 263.656 210.513 266.307C210.345 271.632 210.135 277.694 209.924 284.345L209.882 284.155C211.061 286.071 213.692 287.123 216.133 287.986C218.659 288.828 221.375 289.501 224.153 290.09C229.752 291.227 235.751 292.09 242.045 292.806C254.611 294.237 268.292 295.184 282.585 295.836C285.321 295.942 288.036 296.047 290.731 296.152L290.162 296.699C290.162 282.261 290.204 268.559 290.204 256.1L290.646 256.605C270.271 254.058 252.99 251.911 240.718 250.375C234.677 249.596 229.899 248.965 226.511 248.523C224.932 248.291 223.669 248.123 222.743 247.997C221.901 247.87 221.459 247.786 221.459 247.765C221.459 247.744 221.901 247.765 222.764 247.849C223.69 247.933 224.953 248.06 226.553 248.228C229.941 248.607 234.741 249.133 240.782 249.807C253.074 251.238 270.355 253.258 290.773 255.637L291.215 255.679V256.121C291.215 268.581 291.236 282.282 291.257 296.72V297.289H290.688C287.994 297.162 285.279 297.057 282.522 296.952C268.208 296.299 254.506 295.331 241.897 293.858C235.604 293.121 229.584 292.216 223.943 291.059C221.122 290.448 218.407 289.775 215.818 288.891C214.534 288.449 213.271 287.923 212.092 287.291C210.934 286.618 209.777 285.86 209.082 284.555L209.04 284.471V284.366C209.335 277.715 209.587 271.674 209.819 266.328C209.945 263.677 210.05 261.193 210.156 258.899C210.156 256.647 210.45 254.395 211.461 252.732C213.355 249.28 216.491 248.081 218.407 247.744C220.406 247.449 221.459 247.744 221.459 247.744L221.501 247.702Z" fill="#263238"/>
<path d="M317.336 256.058C306.58 256.058 297.235 263.803 295.635 274.432C295.172 277.462 294.983 280.977 295.193 285.06C296.414 309.327 301.255 339.046 312.79 346.328H392.27V256.058H317.336Z" fill="#263238"/>
<path d="M458.153 256.058C468.909 256.058 478.255 263.803 479.855 274.432C480.318 277.462 480.507 280.977 480.297 285.06C479.076 309.327 474.235 339.046 462.7 346.328H383.219V256.058H458.153Z" fill="#263238"/>
<path d="M478.15 288.091H298.119C295.445 288.091 293.256 285.923 293.256 283.229C293.256 280.556 295.424 278.367 298.119 278.367H478.15C480.823 278.367 483.012 280.535 483.012 283.229C483.012 285.902 480.844 288.091 478.15 288.091Z" fill="#455A64"/>
<path d="M468.72 268.917H304.475C301.802 268.917 299.613 266.749 299.613 264.055C299.613 261.382 301.781 259.194 304.475 259.194H468.72C471.393 259.194 473.582 261.361 473.582 264.055C473.582 266.728 471.414 268.917 468.72 268.917Z" fill="#455A64"/>
<path d="M478.15 299.983H299.992C297.307 299.983 295.13 302.155 295.13 304.834C295.13 307.514 297.307 309.686 299.992 309.686H478.15C480.835 309.686 483.012 307.514 483.012 304.834C483.012 302.155 480.835 299.983 478.15 299.983Z" fill="#455A64"/>
<path d="M471.94 331.301H303.991C301.318 331.301 299.129 329.133 299.129 326.439C299.129 323.766 301.297 321.577 303.991 321.577H471.919C474.592 321.577 476.781 323.745 476.781 326.439C476.781 329.112 474.613 331.301 471.919 331.301H471.94Z" fill="#455A64"/>
<path d="M250.127 213.901C250.127 213.901 270.208 146.887 279.764 138.384H499.43C499.43 138.384 518.29 179.868 525.194 213.901H250.127Z" fill="#455A64"/>
<path d="M306.18 358.115V363.945C306.18 371.038 311.927 376.783 319.02 376.783H459.227C466.32 376.783 472.066 371.038 472.066 363.945V358.115H306.18Z" fill="#263238"/>
<path d="M284.984 341.93V367.46C284.984 367.46 233.667 374.7 226.153 341.93H284.984Z" fill="#263238"/>
<path d="M542.327 228.15C542.327 228.15 542.243 228.023 542.138 227.75C542.012 227.434 541.843 227.034 541.633 226.508C541.17 225.35 540.538 223.751 539.696 221.688C538.012 217.395 535.613 211.207 532.561 203.398C526.478 187.634 517.89 165.303 507.702 138.89L508.165 139.205C486.801 139.205 462.615 139.184 437.083 139.163C391.028 139.037 349.331 138.932 319.104 138.847C304.054 138.763 291.846 138.679 283.342 138.616L273.618 138.49C272.544 138.469 271.702 138.448 271.092 138.426C270.524 138.426 270.229 138.384 270.229 138.363C270.229 138.342 270.524 138.321 271.092 138.3C271.723 138.3 272.544 138.279 273.618 138.258C275.891 138.237 279.154 138.216 283.342 138.174C291.846 138.153 304.033 138.111 319.104 138.048C349.352 138.048 391.028 138.048 437.083 138.048C462.615 138.111 486.801 138.153 508.165 138.195H508.502L508.628 138.511C518.669 164.988 527.13 187.361 533.129 203.167C536.055 211.017 538.391 217.226 540.012 221.541C540.77 223.625 541.38 225.266 541.801 226.424C541.991 226.95 542.117 227.35 542.243 227.687C542.327 227.981 542.37 228.129 542.37 228.129L542.327 228.15Z" fill="#263238"/>
<path d="M525.194 213.901C525.194 214.195 463.605 214.49 387.661 214.532C311.695 214.574 250.106 214.385 250.106 214.069C250.106 213.774 311.674 213.48 387.661 213.438C463.605 213.396 525.194 213.585 525.194 213.901Z" fill="#263238"/>
<path d="M250.127 213.9C250.317 214.132 242.866 220.782 233.499 228.759C224.111 236.736 216.344 243.029 216.155 242.797C215.965 242.566 223.416 235.915 232.804 227.938C242.192 219.962 249.959 213.668 250.148 213.9H250.127Z" fill="#263238"/>
<path d="M252.674 182.161C252.969 182.267 249.643 192.074 245.265 204.071C240.887 216.068 237.119 225.708 236.824 225.623C236.53 225.518 239.855 215.71 244.234 203.713C248.612 191.717 252.38 182.077 252.653 182.182L252.674 182.161Z" fill="#263238"/>
<path d="M494.904 255.131C494.904 255.131 494.736 255.173 494.378 255.215C493.957 255.236 493.452 255.279 492.842 255.321C491.389 255.405 489.411 255.51 486.906 255.657C481.749 255.931 474.277 256.226 465.036 256.499C446.555 257.068 421.023 257.362 392.839 257.257C364.633 257.173 339.122 256.836 320.641 256.605C311.464 256.478 304.033 256.373 298.771 256.289C296.266 256.226 294.267 256.184 292.814 256.163C292.183 256.141 291.678 256.12 291.278 256.099C290.92 256.099 290.752 256.057 290.752 256.036C290.752 256.015 290.92 255.994 291.278 255.973L292.835 255.931C294.288 255.931 296.266 255.889 298.792 255.847C304.054 255.847 311.506 255.826 320.683 255.805C339.248 255.889 364.717 255.994 392.881 256.141C421.065 256.247 446.576 256.078 465.057 255.7C474.213 255.489 481.665 255.321 486.927 255.194C489.432 255.131 491.431 255.089 492.884 255.068C493.515 255.068 494.02 255.068 494.441 255.068C494.799 255.068 494.968 255.068 494.968 255.11L494.904 255.131Z" fill="#263238"/>
<path d="M356.677 138.384H415.613V141.73C415.613 146.908 411.404 151.117 406.226 151.117H366.064C360.886 151.117 356.677 146.908 356.677 141.73V138.384Z" fill="#263238"/>
<path d="M283.027 214.679C281.722 216.068 283.658 194.306 286.626 184.75C287.321 182.54 289.678 181.025 292.393 181.025H345.563C348.489 181.025 350.993 182.814 351.457 185.234C352.677 191.801 355.94 204.429 356.677 214.742L283.027 214.679Z" fill="#263238"/>
<path d="M336.175 157.199H303.107C299.294 157.199 296.203 160.29 296.203 164.103V171.217C296.203 175.029 299.294 178.12 303.107 178.12H336.175C339.988 178.12 343.079 175.029 343.079 171.217V164.103C343.079 160.29 339.988 157.199 336.175 157.199Z" fill="#263238"/>
<path d="M161.399 210.988L151.852 190.641L138.506 196.425L150.414 215.724L161.399 210.988Z" fill="#FFD0B7"/>
<path d="M160.416 209.718L170.103 217.134C170.642 217.567 170.252 221.185 170.252 221.185L169.224 232.101C169.224 232.101 166.923 233.451 166.193 230.684C166.044 230.115 166.003 227.564 165.913 227.008C165.554 224.887 165.58 223.094 165.58 223.094L165.292 226.372C165.292 226.372 165.065 227.255 163.231 228.846C160.968 230.803 158.665 229.268 159.74 228.139C160.808 226.997 162.543 225.044 162.543 225.044C162.543 225.044 159.647 226.817 158.883 224.994C158.883 224.994 156.73 225.547 155.947 224.009C155.165 222.471 155.283 221.029 155.283 221.029C155.283 221.029 150.463 218.338 149.832 216.377C149.208 214.428 148.064 211.027 148.064 211.027L160.436 209.722L160.416 209.718Z" fill="#FFD0B7"/>
<path d="M166.012 220.468L176.435 227.309C176.686 227.474 176.755 227.811 176.59 228.062L174.677 230.968C174.512 231.219 174.174 231.289 173.923 231.124L163.5 224.282C163.249 224.118 163.18 223.781 163.345 223.53L165.258 220.624C165.424 220.373 165.761 220.303 166.012 220.468Z" fill="#455A64"/>
<path d="M173.497 223.402C173.497 223.402 171.282 218.31 171.025 217.76C170.777 217.223 163.845 212.924 163.845 212.924C163.845 212.924 157.572 216.494 157.402 217.595C157.24 218.708 161.704 220.828 167.057 220.353L169.958 223.17C169.958 223.17 170.932 226.495 172.358 226.895C173.783 227.296 174.043 226.647 174.043 226.647L173.493 223.37L173.497 223.402Z" fill="#FFD0B7"/>
<path d="M159.088 214.598C158.981 214.566 158.67 215.503 159.191 216.904C159.438 217.596 159.899 218.354 160.579 219.054C161.317 219.869 162.486 220.113 163.516 220.276C164.947 220.502 166.312 220.549 167.278 220.823L167.124 220.719C168.724 222.303 169.861 223.285 169.989 223.167C170.118 223.049 169.201 221.855 167.725 220.173L167.678 220.101L167.571 220.068C166.401 219.638 165.06 219.575 163.68 219.349C162.662 219.178 161.731 218.984 161.197 218.428C160.563 217.852 160.109 217.209 159.817 216.631C159.214 215.472 159.255 214.592 159.112 214.583L159.088 214.598Z" fill="#FF9A6C"/>
<path d="M159.169 225.012C159.289 224.934 159.052 224.388 158.878 223.494C158.807 223.045 158.745 222.505 158.775 221.922C158.769 221.363 159.054 220.647 158.774 219.721C158.438 218.762 157.486 218.325 156.699 218.378C155.853 218.419 155.259 219.08 155.099 219.595C154.742 220.75 155.415 221.335 155.479 221.224C155.595 221.166 155.315 220.58 155.716 219.858C155.914 219.506 156.274 219.22 156.726 219.232C157.183 219.223 157.735 219.545 157.886 220.011C158.059 220.512 157.889 221.221 157.91 221.907C157.931 222.594 158.064 223.19 158.241 223.671C158.597 224.634 159.073 225.075 159.169 225.012Z" fill="#FF9A6C"/>
<path d="M161.954 224.797C162.073 224.822 162.313 224.221 162.466 223.199C162.543 222.688 162.589 222.077 162.568 221.391C162.543 220.724 162.485 219.823 161.833 219.088C161.515 218.732 161.093 218.479 160.601 218.407C160.11 218.335 159.608 218.51 159.284 218.773C158.631 219.319 158.457 220.047 158.38 220.558C158.286 221.593 158.269 222.168 158.371 222.22C158.514 222.281 158.794 221.637 159.034 220.695C159.169 220.248 159.401 219.738 159.813 219.452C160.193 219.169 160.732 219.261 161.144 219.709C161.541 220.132 161.657 220.808 161.722 221.431C161.783 222.074 161.805 222.658 161.816 223.146C161.845 224.134 161.839 224.752 161.978 224.781L161.954 224.797Z" fill="#FF9A6C"/>
<path d="M178.093 233.518C178.112 233.602 178.487 233.6 179.01 233.342C179.534 233.085 180.188 232.525 180.538 231.666C180.887 230.808 180.806 229.94 180.611 229.401C180.42 228.847 180.143 228.592 180.075 228.636C179.9 228.702 180.51 229.988 179.92 231.427C179.339 232.861 178.002 233.359 178.076 233.529L178.093 233.518Z" fill="#263238"/>
<path d="M180.427 237.311C180.426 237.385 181.214 237.439 182.363 236.967C183.491 236.521 184.974 235.371 185.674 233.58C186.04 232.711 186.202 231.769 186.106 230.935C186.01 230.101 185.725 229.403 185.448 228.869C184.865 227.809 184.454 227.217 184.389 227.247C184.292 227.286 184.57 227.989 185.027 229.06C185.235 229.602 185.451 230.248 185.494 230.984C185.538 231.719 185.383 232.522 185.054 233.319C184.417 234.946 183.159 236.011 182.153 236.535C181.142 237.087 180.4 237.196 180.421 237.303L180.427 237.311Z" fill="#263238"/>
<path d="M184.829 240.687C184.837 240.754 185.877 240.693 187.303 239.883C188.708 239.098 190.458 237.409 191.131 234.946C191.79 232.48 191.118 230.133 190.292 228.758C189.467 227.346 188.588 226.781 188.548 226.832C188.466 226.91 189.197 227.583 189.864 228.976C190.546 230.336 191.071 232.514 190.47 234.772C189.856 237.027 188.304 238.647 187.033 239.489C185.751 240.351 184.78 240.574 184.807 240.689L184.829 240.687Z" fill="#263238"/>
<path d="M51.1789 421.042L49.2862 428.999C49.2862 428.999 36.2719 445.913 32.2664 445.076C29.6401 444.533 32.868 440.128 37.8125 427.281L38.8542 421.981L51.1789 421.042Z" fill="#EF8D53"/>
<path d="M31.7236 442.595C31.7236 442.595 31.7236 442.683 31.8263 442.83C31.9143 442.976 32.0757 443.182 32.3692 443.343C32.6479 443.505 33.0588 443.622 33.5283 443.593C33.9978 443.564 34.5113 443.373 34.9955 443.05C36.8442 441.64 39.1184 439.453 41.554 436.927C43.9749 434.387 45.985 431.935 47.3641 430.115C48.0537 429.205 48.5966 428.441 48.9634 427.927C49.1101 427.707 49.2422 427.516 49.3742 427.311C49.4623 427.164 49.5063 427.09 49.5063 427.09C49.5063 427.09 49.4476 427.149 49.3302 427.281L48.8754 427.869C48.3912 428.5 47.8337 429.205 47.2174 430.012C45.7942 431.803 43.7695 434.241 41.3632 436.766C38.9423 439.276 36.6681 441.493 34.8928 442.903C33.9684 443.578 32.956 443.564 32.4132 443.255C31.841 442.962 31.7383 442.565 31.7236 442.595Z" fill="#263238"/>
<path d="M33.5723 437.162C33.5723 437.162 33.9831 437.118 34.6287 437.221C35.2596 437.309 36.1252 437.588 36.9762 438.102C37.8272 438.616 38.4288 439.291 38.7369 439.864C39.045 440.436 39.133 440.833 39.177 440.818C39.2064 440.818 39.177 440.392 38.8983 439.776C38.6342 439.159 38.0033 438.41 37.1083 437.882C36.2426 437.338 35.3183 437.074 34.658 437.03C33.9831 436.986 33.5723 437.133 33.5869 437.162H33.5723Z" fill="#263238"/>
<path d="M45.8822 433.198C45.8822 433.198 45.7502 432.626 45.6475 431.701C45.5301 430.79 45.6475 429.469 46.3077 428.206C46.9386 426.944 47.9803 426.092 48.7873 425.696C49.609 425.285 50.2105 425.226 50.1958 425.182C50.1958 425.167 50.0491 425.167 49.785 425.196C49.5209 425.24 49.1394 425.329 48.7139 425.519C47.8483 425.901 46.7479 426.767 46.073 428.074C45.398 429.381 45.2953 430.776 45.4714 431.701C45.5448 432.17 45.6475 432.537 45.7355 432.787C45.8235 433.037 45.8822 433.169 45.8969 433.169L45.8822 433.198Z" fill="#263238"/>
<path d="M50.3426 422.392C50.3426 422.392 49.8584 423.479 49.6237 424.888C49.3889 426.298 49.1248 427.413 49.1835 427.443C49.2569 427.472 49.6383 426.356 49.8731 424.947C50.1225 423.537 50.4013 422.422 50.3426 422.407V422.392Z" fill="#263238"/>
<path d="M37.5778 428.412C37.5778 428.485 38.326 428.471 39.1917 428.676C40.0574 428.867 40.7176 429.219 40.7616 429.146C40.8056 429.087 40.1747 428.632 39.2504 428.426C38.326 428.206 37.5631 428.353 37.5778 428.426V428.412Z" fill="#263238"/>
<path d="M37.3137 429.777C37.3137 429.851 37.9446 429.777 38.6635 429.968C39.3825 430.13 39.9107 430.467 39.9547 430.409C39.9987 430.365 39.5145 429.909 38.7222 429.719C37.9446 429.528 37.299 429.719 37.3137 429.777Z" fill="#263238"/>
<path d="M36.2719 431.495C36.2719 431.495 36.9175 431.363 37.6805 431.539C38.4434 431.701 38.9129 432.156 38.9716 432.097C39.0303 432.068 38.5901 431.48 37.7392 431.29C36.9028 431.099 36.2426 431.436 36.2866 431.495H36.2719Z" fill="#263238"/>
<path d="M38.4728 427.839C38.4728 427.839 38.6342 427.839 38.9129 427.795C39.1917 427.736 39.5879 427.648 40.072 427.487C40.5562 427.325 41.1138 427.09 41.686 426.767C41.9794 426.606 42.2729 426.415 42.581 426.21C42.8598 425.989 43.2266 425.71 43.2266 425.211C43.1972 424.683 42.6103 424.477 42.2289 424.595C41.8327 424.697 41.5539 424.976 41.3192 425.196C40.8497 425.666 40.4388 426.107 40.1307 426.503C39.8079 426.9 39.5732 427.223 39.4118 427.458C39.2504 427.692 39.177 427.825 39.1917 427.839C39.2211 427.869 39.6025 427.369 40.2628 426.621C40.6002 426.254 41.0111 425.813 41.4806 425.373C41.7153 425.152 41.9648 424.918 42.2729 424.844C42.5663 424.771 42.9478 424.932 42.9478 425.241C42.9478 425.534 42.669 425.828 42.4049 426.019C42.1115 426.224 41.818 426.415 41.5393 426.577C40.967 426.9 40.4388 427.149 39.9693 427.34C39.045 427.707 38.4288 427.825 38.4434 427.869L38.4728 427.839Z" fill="#263238"/>
<path d="M39.1624 427.678C39.1624 427.678 39.1917 427.531 39.177 427.281C39.177 427.032 39.1477 426.65 39.089 426.195C39.0303 425.74 38.9276 425.197 38.6782 424.624C38.5461 424.345 38.3994 424.051 38.1647 423.787C37.9593 423.552 37.5484 423.229 37.1229 423.464C36.7268 423.714 36.7268 424.183 36.7561 424.506C36.8148 424.844 36.9175 425.152 37.0349 425.446C37.2843 426.019 37.6511 426.444 37.9593 426.782C38.282 427.12 38.5755 427.34 38.7809 427.487C38.9863 427.634 39.1184 427.692 39.133 427.692C39.1624 427.663 38.6929 427.34 38.0913 426.665C37.7979 426.327 37.4751 425.901 37.2403 425.358C37.1229 425.094 37.0349 424.785 36.9909 424.492C36.9469 424.198 36.9909 423.831 37.2256 423.714C37.4604 423.581 37.7538 423.758 37.9593 423.993C38.1647 424.213 38.3114 424.492 38.4434 424.756C38.6929 425.285 38.8102 425.813 38.8836 426.254C39.0303 427.149 39.089 427.707 39.133 427.707L39.1624 427.678Z" fill="#263238"/>
<g opacity="0.4">
<path d="M49.2862 429.014L50.1959 425.182C50.1959 425.182 47.012 425.769 46.1757 428.162C45.354 430.555 45.5594 432.244 45.5594 432.244L38.6342 439.717C38.6342 439.717 36.8882 436.311 33.7483 437.133C33.7483 437.133 31.2687 442.58 31.3421 443.945C31.4301 445.443 33 445.149 33.5723 444.885C33.8217 444.767 36.8148 443.05 39.7786 439.981C43.4467 436.164 47.5108 431.334 49.2862 428.999V429.014Z" fill="black"/>
</g>
<path d="M115.854 425.064L115.913 414.449L96.0318 414.214L95.7823 429.748L97.0148 429.836C102.502 430.203 124.907 431.334 128.589 430.276C132.698 429.087 115.854 425.079 115.854 425.079V425.064Z" fill="#EF8D53"/>
<g opacity="0.4">
<path d="M103.001 429.675C102.737 428.016 101.827 426.459 100.522 425.402C99.2011 424.345 97.5725 423.787 95.8999 423.905L95.8265 429.469L103.016 429.689L103.001 429.675Z" fill="black"/>
</g>
<g opacity="0.4">
<path d="M124.085 427.325C124.085 427.325 129.983 429.102 129.235 430.071C128.487 431.04 105.789 430.746 95.797 429.748L95.8411 429.307L122.31 429.865C122.31 429.865 122.941 427.355 124.1 427.325H124.085Z" fill="black"/>
</g>
<path d="M95.5183 429.278C95.5183 429.278 95.6356 429.307 95.8557 429.322C96.1492 429.337 96.472 429.366 96.8388 429.396C97.8218 429.454 99.0249 429.513 100.448 429.601C103.5 429.748 107.711 429.895 112.377 429.968C117.042 430.027 121.253 429.997 124.305 429.924C125.728 429.88 126.931 429.851 127.914 429.821C128.281 429.807 128.604 429.792 128.898 429.777C129.118 429.777 129.235 429.748 129.235 429.748C129.235 429.748 129.118 429.748 128.898 429.733C128.604 429.733 128.281 429.733 127.914 429.733C126.931 429.733 125.728 429.748 124.305 429.763C121.253 429.792 117.042 429.792 112.377 429.733C107.726 429.674 103.515 429.542 100.463 429.44C99.0396 429.396 97.8365 429.351 96.8534 429.307C96.4866 429.307 96.1639 429.293 95.8704 429.278C95.6503 429.278 95.5329 429.278 95.5329 429.278H95.5183Z" fill="#263238"/>
<path d="M122.28 430.174C122.28 430.174 122.427 429.322 122.97 428.456C123.513 427.575 124.261 427.149 124.217 427.091C124.217 427.032 123.351 427.399 122.765 428.324C122.178 429.249 122.207 430.188 122.266 430.174H122.28Z" fill="#263238"/>
<path d="M116.455 427.12C116.455 427.12 116.793 426.812 117.086 426.371C117.38 425.916 117.571 425.52 117.527 425.49C117.468 425.461 117.189 425.798 116.896 426.239C116.602 426.694 116.411 427.091 116.455 427.12Z" fill="#263238"/>
<path d="M114.856 426.254C114.856 426.254 115.223 426.092 115.56 425.798C115.913 425.49 116.147 425.211 116.103 425.152C116.059 425.108 115.737 425.314 115.399 425.608C115.047 425.916 114.812 426.195 114.856 426.254Z" fill="#263238"/>
<path d="M113.873 424.36C113.873 424.36 114.328 424.492 114.915 424.506C115.487 424.506 115.957 424.477 115.957 424.404C115.957 424.33 115.502 424.272 114.915 424.257C114.343 424.257 113.873 424.286 113.873 424.36Z" fill="#263238"/>
<path d="M113.536 423.038C113.536 423.038 114.02 423.332 114.695 423.391C115.37 423.449 115.898 423.303 115.898 423.244C115.898 423.17 115.355 423.2 114.724 423.141C114.079 423.082 113.565 422.965 113.55 423.024L113.536 423.038Z" fill="#263238"/>
<path d="M117.16 425.402C117.16 425.402 117.644 425.49 118.436 425.402C118.832 425.358 119.302 425.27 119.801 425.123C120.05 425.035 120.314 424.976 120.578 424.815C120.71 424.727 120.842 424.609 120.901 424.418C120.96 424.228 120.857 424.007 120.71 423.905C119.493 423.259 118.26 423.934 117.805 424.551C117.556 424.874 117.439 425.182 117.38 425.402C117.321 425.622 117.321 425.74 117.336 425.74C117.38 425.754 117.424 425.241 117.937 424.653C118.187 424.374 118.554 424.095 119.038 423.963C119.493 423.831 120.138 423.802 120.564 424.081C120.769 424.228 120.681 424.477 120.461 424.609C120.256 424.741 119.977 424.815 119.742 424.903C119.258 425.064 118.803 425.167 118.422 425.226C117.659 425.358 117.174 425.343 117.174 425.387L117.16 425.402Z" fill="#263238"/>
<path d="M117.483 425.461C117.483 425.461 117.688 425.152 117.644 424.58C117.615 424.301 117.512 423.963 117.307 423.64C117.086 423.361 116.793 422.965 116.25 422.98C115.957 423.009 115.81 423.347 115.854 423.567C115.869 423.787 115.971 423.978 116.059 424.139C116.25 424.462 116.456 424.727 116.646 424.918C117.042 425.314 117.351 425.461 117.365 425.446C117.395 425.417 117.116 425.211 116.764 424.8C116.588 424.595 116.411 424.33 116.235 424.022C116.059 423.743 115.957 423.258 116.265 423.214C116.588 423.185 116.91 423.508 117.101 423.772C117.292 424.051 117.409 424.345 117.453 424.609C117.541 425.138 117.424 425.461 117.453 425.475L117.483 425.461Z" fill="#263238"/>
<path d="M95.9878 423.846C95.9878 423.846 96.56 423.802 97.455 423.919C98.35 424.037 99.5824 424.404 100.639 425.285C101.71 426.151 102.326 427.296 102.605 428.148C102.898 428.999 102.913 429.572 102.957 429.572C102.957 429.572 102.986 429.425 102.957 429.175C102.942 428.911 102.884 428.544 102.752 428.104C102.502 427.223 101.886 426.019 100.771 425.108C99.6558 424.198 98.3647 423.831 97.455 423.758C97.0001 423.714 96.6187 423.743 96.3546 423.758C96.1051 423.787 95.9584 423.831 95.9584 423.846H95.9878Z" fill="#263238"/>
<path d="M98.1593 415.594C98.1593 415.594 97.9979 417.415 97.9392 419.676C97.8805 421.937 97.8952 423.758 97.9539 423.772C98.0272 423.772 98.1153 421.952 98.1739 419.691C98.2326 417.43 98.218 415.609 98.1593 415.609V415.594Z" fill="#263238"/>
<path d="M105.525 427.766C105.525 427.766 106.801 428.059 108.415 428.089C110.029 428.133 111.335 427.957 111.32 427.898C111.32 427.825 110.014 427.898 108.415 427.854C106.816 427.825 105.525 427.707 105.51 427.766H105.525Z" fill="#263238"/>
<path d="M101.637 427.707C101.637 427.707 101.739 427.986 101.871 428.28C102.003 428.573 102.062 428.838 102.135 428.838C102.194 428.838 102.238 428.529 102.091 428.177C101.945 427.825 101.681 427.648 101.637 427.692V427.707Z" fill="#263238"/>
<path d="M100.184 425.872C100.184 425.872 100.257 426.121 100.463 426.342C100.668 426.547 100.874 426.679 100.918 426.635C100.962 426.591 100.844 426.386 100.639 426.166C100.433 425.96 100.228 425.828 100.184 425.872Z" fill="#263238"/>
<path d="M98.1006 425.006C98.1006 425.006 98.3794 425.079 98.6728 425.182C98.9663 425.285 99.1717 425.446 99.2304 425.402C99.289 425.373 99.1276 425.079 98.7608 424.962C98.394 424.829 98.1006 424.962 98.1153 425.02L98.1006 425.006Z" fill="#263238"/>
<path d="M96.604 424.594C96.604 424.594 96.692 424.756 96.8534 424.829C97.0148 424.903 97.1762 424.903 97.1909 424.829C97.2202 424.771 97.1028 424.668 96.9414 424.594C96.78 424.521 96.6187 424.521 96.604 424.594Z" fill="#263238"/>
<path d="M33.9391 422.613L69.3578 214.217L123.982 222.541L117.659 421.042L92.3638 423.2L94.3005 248.455L55.3751 423.391L33.9391 422.613Z" fill="#455A64"/>
<path d="M63.841 229.75L71.0891 168.292L60.1289 185.425L42.6103 170.259L63.0927 142.554C66.8635 138.649 71.2798 135.756 76.5471 133.833C79.1148 132.908 81.8291 132.35 84.9836 132.218C91.7769 134.318 98.5701 134.318 105.363 132.218C106.508 132.365 108.283 132.512 110.616 132.835C118.554 133.921 125.728 138.15 130.497 144.595L151.581 185.102L133.519 191.944L123.997 174.766L125.772 231.791L108.767 235.491L95.7971 226.109L77.897 235.491L63.841 229.736V229.75Z" fill="#263238"/>
<path d="M123.058 153.257C122.867 153.257 123.058 162.757 123.483 174.443C123.924 186.145 124.437 195.615 124.628 195.6C124.819 195.6 124.628 186.116 124.188 174.414C123.748 162.727 123.234 153.257 123.043 153.257H123.058Z" fill="#455A64"/>
<path d="M72.3215 157.001C72.1308 156.987 71.4265 162.463 70.781 169.246C70.1207 176.029 69.7539 181.549 69.9446 181.564C70.1354 181.579 70.8396 176.102 71.4852 169.319C72.1455 162.536 72.5123 157.016 72.3215 157.001Z" fill="#455A64"/>
<path d="M100.771 80.3908C97.9539 79.7448 95.1075 79.0841 92.2317 79.2162C89.356 79.3484 86.3922 80.3467 84.4848 82.5197C83.311 83.8557 82.5921 85.6029 81.1982 86.704C79.4669 88.0841 76.6792 88.5393 76.0923 90.6828C75.4907 92.8851 77.8236 94.9406 77.6622 97.2016C77.5742 98.4936 76.6939 99.5801 75.9456 100.652C75.212 101.724 74.5664 103.074 75.0212 104.293C75.388 105.277 76.3711 105.908 76.8552 106.833C77.6035 108.272 77.002 110.034 77.2367 111.634C77.5742 113.983 79.731 115.745 82.0345 116.347C84.3234 116.949 86.759 116.655 89.1065 116.347" fill="#263238"/>
<path d="M102.942 81.4037C104.879 81.0219 106.875 80.6696 108.797 81.1247C110.719 81.5799 112.538 83.0187 112.817 84.9714C112.993 86.1753 112.597 87.5261 113.272 88.5391C114.035 89.6696 115.751 89.7577 116.617 90.8001C118.495 93.0465 114.886 96.9225 116.764 99.1688C117.262 99.7708 118.069 100.064 118.612 100.622C119.551 101.591 119.507 103.25 118.73 104.337C117.952 105.438 116.588 105.996 115.238 106.069C113.888 106.143 112.567 105.776 111.306 105.306C107.051 103.735 103.133 100.843 101.094 96.7757C99.069 92.7088 99.2597 87.4086 102.194 83.9583" fill="#263238"/>
<path d="M84.7929 96.5263L84.2501 135.169L103.573 135.566C103.911 133.334 104.63 124.657 104.63 124.657C104.63 124.657 112.729 124.216 113.624 116.244C114.064 112.368 114.313 104.308 114.445 97.0255C114.607 88.9504 108.283 82.2408 100.228 81.9031C91.8796 81.5507 84.8957 88.1723 84.7783 96.5263H84.7929Z" fill="#FFC7AA"/>
<path d="M104.659 124.539C104.659 124.539 99.5825 124.437 94.55 120.531C94.55 120.531 96.428 126.521 104.468 126.595L104.659 124.525V124.539Z" fill="#EB996E"/>
<path d="M110.836 101.68C110.792 102.282 110.249 102.751 109.618 102.722C108.987 102.693 108.503 102.179 108.547 101.577C108.591 100.975 109.134 100.505 109.765 100.535C110.396 100.564 110.88 101.078 110.836 101.68Z" fill="#263238"/>
<path d="M112.362 100.872C112.201 101.004 111.408 100.285 110.176 100.167C108.958 100.035 107.99 100.564 107.872 100.402C107.814 100.329 107.99 100.079 108.401 99.8297C108.811 99.5801 109.501 99.3745 110.264 99.4479C111.027 99.536 111.643 99.8737 111.981 100.197C112.333 100.52 112.435 100.799 112.347 100.872H112.362Z" fill="#263238"/>
<path d="M98.5262 100.946C98.4821 101.548 97.9393 102.017 97.3084 101.988C96.6775 101.959 96.1933 101.445 96.2373 100.843C96.2813 100.241 96.8242 99.771 97.4551 99.8004C98.086 99.8297 98.5702 100.344 98.5262 100.946Z" fill="#263238"/>
<path d="M100.287 99.8884C100.125 100.021 99.3331 99.3012 98.1007 99.1837C96.8829 99.0516 95.9145 99.5801 95.7971 99.4186C95.7384 99.3452 95.9145 99.0956 96.3253 98.846C96.7361 98.5964 97.4257 98.3909 98.1887 98.4643C98.9517 98.5524 99.5679 98.8901 99.9053 99.2131C100.257 99.5361 100.36 99.815 100.272 99.8884H100.287Z" fill="#263238"/>
<path d="M103.823 109.432C103.823 109.432 104.6 109.3 105.848 109.27C106.17 109.27 106.464 109.241 106.537 109.035C106.64 108.815 106.537 108.463 106.42 108.081C106.2 107.288 105.98 106.466 105.73 105.6C104.791 102.076 104.131 99.1837 104.278 99.1543C104.424 99.1103 105.305 101.944 106.244 105.468C106.464 106.334 106.684 107.171 106.889 107.949C106.977 108.316 107.139 108.742 106.933 109.197C106.831 109.417 106.581 109.564 106.376 109.608C106.17 109.652 105.994 109.637 105.833 109.623C104.586 109.564 103.808 109.49 103.808 109.417L103.823 109.432Z" fill="#263238"/>
<path d="M100.125 109.916C100.331 109.916 100.199 111.252 101.241 112.309C102.282 113.367 103.72 113.367 103.705 113.557C103.705 113.645 103.368 113.778 102.766 113.734C102.18 113.69 101.343 113.425 100.698 112.779C100.067 112.133 99.8467 111.326 99.8467 110.782C99.8467 110.225 100.037 109.902 100.125 109.916Z" fill="#263238"/>
<path d="M101.079 95.1169C100.918 95.4399 99.7146 95.161 98.262 95.1903C96.8095 95.1903 95.6063 95.4986 95.4449 95.1903C95.3716 95.0435 95.6063 94.7499 96.1052 94.4709C96.6041 94.1919 97.3817 93.957 98.2473 93.957C99.113 93.957 99.8906 94.1626 100.404 94.4269C100.918 94.6911 101.152 94.9848 101.079 95.1316V95.1169Z" fill="#263238"/>
<path d="M112.259 97.2752C112.01 97.5395 111.203 97.1577 110.191 97.0403C109.178 96.8935 108.298 97.0403 108.122 96.732C108.048 96.5851 108.21 96.3209 108.621 96.086C109.017 95.8657 109.662 95.7042 110.352 95.7923C111.042 95.8804 111.628 96.2034 111.951 96.5117C112.274 96.8347 112.377 97.1284 112.259 97.2605V97.2752Z" fill="#263238"/>
<path d="M86.8911 102.781C86.759 102.708 81.5797 100.608 81.1982 106.084C80.8314 111.561 86.3922 110.797 86.4215 110.65C86.4362 110.489 86.8911 102.781 86.8911 102.781Z" fill="#FFC7AA"/>
<path d="M84.881 108.463C84.881 108.463 84.7783 108.522 84.6169 108.58C84.4555 108.639 84.1767 108.668 83.8979 108.551C83.3404 108.301 82.9149 107.347 82.9443 106.363C82.9589 105.864 83.1056 105.394 83.3111 105.013C83.5018 104.631 83.7806 104.367 84.074 104.323C84.3674 104.279 84.5582 104.469 84.6169 104.616C84.6756 104.778 84.6316 104.881 84.6609 104.895C84.6609 104.91 84.7783 104.807 84.7489 104.587C84.7343 104.484 84.6756 104.337 84.5582 104.235C84.4408 104.117 84.2501 104.058 84.0447 104.058C83.6192 104.058 83.2083 104.425 82.9883 104.836C82.7388 105.248 82.5775 105.776 82.5481 106.334C82.5041 107.435 83.0029 108.507 83.7806 108.786C84.162 108.918 84.4848 108.815 84.6609 108.698C84.837 108.58 84.881 108.448 84.8516 108.448L84.881 108.463Z" fill="#EB996E"/>
<path d="M105.437 82.2553C105.041 81.4772 103.705 80.5669 103.104 80.1265C102.297 79.5392 100.639 79.1575 99.6412 79.0987C97.1909 78.9519 94.682 79.0253 92.3491 79.7741C90.0162 80.5229 87.8447 82.0351 86.715 84.2227C85.8346 85.9258 85.5852 88.0107 84.2207 89.3761C83.1203 90.4772 81.3743 90.9911 80.7581 92.4153C79.643 94.9406 82.9882 97.8329 81.9025 100.358C81.7118 100.813 81.3743 101.224 81.3596 101.724C81.3449 102.311 81.7998 102.825 82.328 103.06C82.8562 103.295 83.4578 103.309 84.0446 103.309C86.0987 103.324 88.6077 103.06 89.4733 101.195C90.2656 99.4773 89.2239 97.1722 90.383 95.6747C91.3954 94.3826 93.1121 94.8965 94.5206 94.0743C95.1221 93.7366 95.665 93.3109 96.1639 92.841C97.1029 92.753 98.0272 92.6355 98.9076 92.3419C100.008 91.9601 101.05 91.2701 101.607 90.2423C102.209 89.1118 102.209 87.6436 103.118 86.7333C104.072 85.779 105.848 85.6616 106.302 84.3842C106.581 83.5914 106.141 82.6664 105.407 82.2553H105.437Z" fill="#263238"/>
<path d="M151.581 183.179L153.283 186.512C154.192 188.303 153.473 190.505 151.654 191.386L139.828 197.186C138.097 198.037 135.999 197.362 135.075 195.659L132.463 190.843L151.581 183.179Z" fill="#263238"/>
<path d="M30.8289 136.799L41.613 139.456C41.613 139.456 42.0678 137.342 42.2145 136.667C42.728 134.288 42.1852 132.996 41.9651 132.527C41.8477 132.277 41.8184 131.807 41.8184 131.807C41.8917 130.956 43.8431 127.006 44.5621 125.553C45.4131 123.805 44.5474 122.66 44.0045 123.336C43.0215 124.584 40.043 130.133 39.3388 130.559C38.6345 130.985 39.5148 128.019 39.5148 128.019C41.613 121.706 42.1852 120.825 41.0848 120.385C39.8083 119.871 36.6537 129.267 36.6537 129.267C36.6537 129.267 37.0939 127.946 36.0962 127.491C35.1132 127.036 34.3942 128.283 34.3942 128.283C34.6437 127.623 33.69 127.329 33.69 127.329C31.181 127.241 30.8289 136.77 30.8289 136.77L41.613 139.427L40.4392 176.851L44.386 172.638L57.6057 183.502L44.4007 195.586C41.613 197.935 37.8862 198.86 34.3209 198.096C28.3493 196.819 24.3438 191.196 25.0627 185.132L30.8436 136.755L30.8289 136.799Z" fill="#FFD0B7"/>
<path d="M39.3681 138.399C39.3681 138.399 38.928 137.739 38.3264 136.652C38.0183 136.109 37.6955 135.433 37.402 134.67C37.2553 134.288 37.1233 133.877 37.0059 133.437C36.9032 133.011 36.7271 132.541 36.8445 132.174C36.9032 131.954 37.0646 131.792 37.2406 131.778C37.4167 131.748 37.6515 131.851 37.8422 131.983C38.253 132.262 38.6198 132.6 38.928 132.923C39.5442 133.598 39.9403 134.288 40.1898 134.861L40.2778 135.066L40.4098 134.89C40.938 134.156 41.5103 133.995 41.4809 133.936C41.4809 133.907 40.8647 133.965 40.2044 134.729L40.4245 134.758C40.2191 134.156 39.8376 133.393 39.2067 132.659C38.8839 132.292 38.5171 131.939 38.0623 131.631C37.8275 131.484 37.5488 131.308 37.182 131.337C36.8005 131.381 36.5364 131.704 36.4337 132.027C36.287 132.615 36.507 133.084 36.6097 133.525C36.7418 133.965 36.8885 134.391 37.0499 134.787C37.3727 135.58 37.7248 136.241 38.077 136.784C38.7666 137.871 39.3388 138.414 39.3681 138.385V138.399Z" fill="#EB996E"/>
<path d="M36.419 129.884C36.419 129.884 36.2283 130.647 36.0669 131.895C35.9935 132.571 35.9055 133.29 35.8028 134.083C35.7441 134.479 35.7294 134.949 35.612 135.331C35.524 135.698 35.1279 135.977 34.8784 135.771C34.6143 135.566 34.5556 135.067 34.5116 134.626C34.4676 134.186 34.4383 133.745 34.4236 133.334C34.3943 132.512 34.3943 131.763 34.3796 131.132C34.3796 129.869 34.3209 129.091 34.2622 129.091C34.2035 129.091 34.1595 129.869 34.0861 131.117C34.0568 131.749 34.0274 132.497 34.0421 133.334C34.0421 133.745 34.0568 134.186 34.1008 134.656C34.1595 135.081 34.1302 135.654 34.629 136.094C34.8931 136.3 35.2893 136.271 35.524 136.094C35.7734 135.933 35.9202 135.669 35.9935 135.434C36.1256 134.949 36.1256 134.523 36.1696 134.112C36.2283 133.319 36.287 132.585 36.3457 131.91C36.4337 130.647 36.463 129.884 36.4043 129.869L36.419 129.884Z" fill="#EB996E"/>
<path d="M34.1008 132.306C34.1008 132.306 34.1154 132.776 33.9394 133.481C33.8513 133.804 33.7046 134.274 33.4112 134.523C33.2498 134.626 33.1617 134.626 33.059 134.45C32.971 134.274 32.8977 133.965 32.8243 133.716C32.2374 131.543 32.4428 129.693 32.3254 129.693C32.2227 129.664 31.8266 131.558 32.4281 133.833C32.5162 134.112 32.5602 134.377 32.7069 134.67C32.7803 134.817 32.9417 134.964 33.1471 135.008C33.3525 135.037 33.5432 134.949 33.6459 134.846C33.8807 134.641 33.9834 134.391 34.0568 134.186C34.1448 133.965 34.1888 133.76 34.2181 133.569C34.3355 132.791 34.1301 132.321 34.0861 132.336L34.1008 132.306Z" fill="#EB996E"/>
<path d="M42.6107 169.275L61.5966 185.117L61.3031 185.44C59.1023 187.848 55.3902 188.053 52.9253 185.91L42.42 176.734C40.6153 175.148 40.3072 172.446 41.7157 170.494L42.5961 169.275H42.6107Z" fill="#263238"/>
<path d="M106.596 132.717L105.29 126.962C105.29 126.962 98.2476 127.417 95.9881 133.936C95.9881 133.936 93.2884 126.962 84.7785 125.802L83.0619 133.128L96.6483 138.81L106.596 132.702" fill="#263238"/>
<path d="M133.534 191.636C133.651 191.827 137.261 189.889 141.78 187.657C146.299 185.425 150.04 183.737 149.952 183.531C149.879 183.34 145.991 184.72 141.442 186.967C136.894 189.213 133.431 191.459 133.534 191.636Z" fill="#455A64"/>
<path d="M43.7404 169.055C43.667 169.114 44.2833 170.215 45.4864 171.859C46.6895 173.503 48.5382 175.662 50.8418 177.761C53.1453 179.861 55.4635 181.505 57.1948 182.562C58.9408 183.619 60.0999 184.133 60.1439 184.06C60.2613 183.854 55.889 181.373 51.3553 177.203C46.7922 173.063 43.9311 168.923 43.7404 169.055Z" fill="#455A64"/>
<path d="M96.0028 133.936C96.0028 133.936 95.9441 134.244 95.9294 134.846C95.9147 135.522 95.8854 136.388 95.856 137.445C95.8267 139.809 95.768 143.054 95.7093 147.018C95.6506 155.196 95.592 166.324 95.5039 178.613C95.5039 190.917 95.5186 202.046 95.5333 210.209C95.5773 214.173 95.6066 217.418 95.6213 219.781C95.6506 220.839 95.6653 221.705 95.68 222.38C95.7093 222.982 95.724 223.29 95.7533 223.29C95.7827 223.29 95.812 222.982 95.8267 222.38C95.8414 221.705 95.8707 220.839 95.9001 219.781C95.9294 217.418 95.9881 214.173 96.0468 210.209C96.1055 202.031 96.1642 190.902 96.2522 178.613C96.2522 166.324 96.2375 155.196 96.2229 147.018C96.1788 143.054 96.1495 139.794 96.1348 137.445C96.1055 136.373 96.0908 135.522 96.0761 134.846C96.0468 134.244 96.0321 133.936 96.0028 133.936Z" fill="#455A64"/>
<path d="M97.3821 131.763C97.3821 131.763 97.6022 131.675 97.9396 131.763C98.2771 131.836 98.5999 132.218 98.9227 132.835C99.5976 134.024 100.302 135.815 100.39 137.9L100.419 138.781L101.035 138.15L101.065 138.12C104.043 135.037 106.816 132.908 106.684 132.717C106.582 132.556 103.559 134.435 100.522 137.577L100.493 137.606L101.153 137.856C101.065 135.61 100.214 133.701 99.3775 132.541C99.0107 131.969 98.4825 131.44 97.969 131.455C97.4848 131.455 97.3381 131.734 97.3821 131.748V131.763Z" fill="#455A64"/>
<path d="M84.6169 125.934C84.4702 125.905 83.7072 128.724 82.7682 132.82L82.7095 133.04L82.9149 133.172C84.1181 134.009 85.4972 134.905 86.9938 135.771C88.5491 136.681 90.075 137.489 91.4395 138.164L91.953 138.414V137.856C91.9237 135.888 92.6719 134.288 93.3175 133.319C93.9778 132.335 94.5206 131.866 94.462 131.807C94.4326 131.763 93.7724 132.115 92.9801 133.084C92.2024 134.039 91.2928 135.698 91.2487 137.87L91.7476 137.562C90.4124 136.857 88.9305 136.035 87.3753 135.14C85.9081 134.273 84.5289 133.407 83.3111 132.614L83.4578 132.981C84.2941 128.87 84.7783 125.978 84.6316 125.949L84.6169 125.934Z" fill="#455A64"/>
<path d="M93.7726 150.188C93.714 150.277 93.846 150.482 93.758 150.79C93.6699 151.113 93.4058 151.319 93.0684 151.099C92.7309 150.864 92.819 150.556 93.0831 150.335C93.3325 150.144 93.5819 150.174 93.6259 150.086C93.6993 150.012 93.4205 149.675 92.8483 149.851C92.5989 149.939 92.2761 150.144 92.144 150.556C92.012 150.981 92.2467 151.495 92.6282 151.73C92.995 151.98 93.5526 152.009 93.9047 151.73C94.2422 151.451 94.3155 151.084 94.2862 150.805C94.2128 150.218 93.802 150.086 93.758 150.188H93.7726Z" fill="#455A64"/>
<path d="M93.2298 175.236C93.1711 175.324 93.3032 175.53 93.2151 175.838C93.1271 176.161 92.863 176.366 92.5255 176.146C92.1881 175.911 92.2761 175.603 92.5402 175.383C92.7896 175.192 93.0391 175.221 93.0831 175.133C93.1564 175.074 92.8777 174.722 92.3054 174.898C92.056 174.986 91.7332 175.192 91.6012 175.603C91.4691 176.029 91.7039 176.543 92.0854 176.778C92.4522 177.027 93.0097 177.056 93.3618 176.778C93.6993 176.499 93.7727 176.132 93.7433 175.853C93.67 175.265 93.2591 175.133 93.2151 175.236H93.2298Z" fill="#455A64"/>
<path d="M93.0978 203.014C93.0391 203.102 93.1711 203.308 93.0831 203.616C92.9951 203.939 92.731 204.145 92.3935 203.925C92.056 203.69 92.1441 203.381 92.4082 203.161C92.6576 202.97 92.907 203 92.9511 202.911C93.0244 202.853 92.7456 202.5 92.1734 202.677C91.924 202.765 91.6012 202.97 91.4692 203.381C91.3371 203.807 91.5719 204.321 91.9533 204.556C92.3201 204.805 92.8777 204.835 93.2298 204.556C93.5673 204.277 93.6406 203.91 93.6113 203.631C93.5379 203.044 93.1271 202.911 93.0831 203.014H93.0978Z" fill="#455A64"/>
<path d="M139.051 182.151C139.256 182.195 139.653 181.079 139.946 179.67C140.225 178.26 140.298 177.071 140.093 177.027C139.887 176.983 139.491 178.099 139.198 179.508C138.919 180.918 138.846 182.107 139.051 182.151Z" fill="#F5F5F5"/>
<path d="M133.49 166.427C133.446 166.633 134.605 167.058 136.072 167.381C137.554 167.704 138.772 167.807 138.831 167.602C138.875 167.396 137.716 166.97 136.248 166.647C134.781 166.324 133.549 166.222 133.49 166.427Z" fill="#F5F5F5"/>
<path d="M129.631 175.368C129.47 175.515 129.954 176.264 130.688 177.057C131.421 177.85 132.155 178.378 132.301 178.231C132.448 178.084 131.979 177.336 131.245 176.543C130.511 175.75 129.778 175.236 129.631 175.368Z" fill="#F5F5F5"/>
<path d="M128.766 158.352C128.971 158.352 129.191 156.943 129.25 155.181C129.308 153.419 129.176 151.995 128.956 151.995C128.751 151.995 128.531 153.404 128.472 155.166C128.413 156.928 128.545 158.352 128.766 158.352Z" fill="#F5F5F5"/>
<path d="M117.527 144.125C117.527 144.331 118.906 144.492 120.608 144.492C122.31 144.492 123.675 144.301 123.675 144.081C123.675 143.875 122.295 143.714 120.593 143.714C118.891 143.714 117.527 143.905 117.527 144.125Z" fill="#F5F5F5"/>
<path d="M109.618 143.773C109.824 143.699 109.501 142.275 108.914 140.587C108.327 138.898 107.682 137.577 107.491 137.65C107.285 137.724 107.608 139.148 108.195 140.836C108.782 142.525 109.428 143.846 109.618 143.773Z" fill="#F5F5F5"/>
<path d="M112.582 161.42C112.773 161.523 113.55 160.392 114.328 158.924C115.106 157.441 115.59 156.164 115.399 156.061C115.208 155.958 114.431 157.074 113.653 158.557C112.876 160.04 112.391 161.317 112.582 161.42Z" fill="#F5F5F5"/>
<path d="M101.93 155.284C102.136 155.254 102.165 154.227 102.004 152.979C101.828 151.731 101.534 150.747 101.314 150.776C101.109 150.806 101.079 151.833 101.241 153.081C101.417 154.329 101.71 155.313 101.93 155.284Z" fill="#F5F5F5"/>
<path d="M103.178 165.972C103.148 166.177 104.146 166.485 105.378 166.632C106.626 166.794 107.653 166.75 107.682 166.544C107.711 166.339 106.714 166.03 105.481 165.883C104.234 165.722 103.207 165.766 103.178 165.972Z" fill="#F5F5F5"/>
<path d="M117.527 179.685C117.732 179.699 117.997 178.657 118.114 177.365C118.231 176.058 118.158 174.987 117.953 174.972C117.747 174.957 117.483 176 117.366 177.292C117.248 178.598 117.322 179.67 117.527 179.685Z" fill="#F5F5F5"/>
<path d="M105.671 183.766C105.51 183.898 106.244 185.073 107.315 186.365C108.386 187.672 109.384 188.611 109.56 188.479C109.721 188.347 108.987 187.173 107.916 185.88C106.845 184.574 105.848 183.634 105.686 183.766H105.671Z" fill="#F5F5F5"/>
<path d="M116.045 199.344C116.235 199.432 116.852 198.434 117.409 197.142C117.967 195.835 118.275 194.719 118.084 194.631C117.893 194.543 117.277 195.541 116.72 196.833C116.162 198.14 115.854 199.256 116.045 199.344Z" fill="#F5F5F5"/>
<path d="M102.576 201.003C102.37 201.047 102.429 202.266 102.722 203.734C103.016 205.202 103.412 206.362 103.617 206.318C103.823 206.274 103.764 205.055 103.471 203.587C103.177 202.119 102.781 200.959 102.576 201.003Z" fill="#F5F5F5"/>
<path d="M115.326 220.574C115.487 220.706 116.426 219.884 117.409 218.724C118.407 217.564 119.082 216.507 118.921 216.375C118.759 216.243 117.82 217.065 116.837 218.225C115.839 219.385 115.164 220.442 115.326 220.574Z" fill="#F5F5F5"/>
<path d="M114.666 228.032C114.637 228.238 115.796 228.59 117.263 228.825C118.73 229.06 119.948 229.075 119.992 228.869C120.021 228.664 118.862 228.311 117.395 228.076C115.928 227.841 114.71 227.827 114.666 228.032Z" fill="#F5F5F5"/>
<path d="M99.5092 218.004C99.3625 218.166 100.434 219.399 101.901 220.765C103.368 222.13 104.674 223.114 104.806 222.967C104.953 222.805 103.882 221.587 102.414 220.207C100.947 218.841 99.6413 217.858 99.5092 218.019V218.004Z" fill="#F5F5F5"/>
<path d="M111.834 207.155C111.629 207.184 111.555 207.889 111.673 208.74C111.79 209.592 112.054 210.253 112.26 210.223C112.465 210.194 112.538 209.489 112.421 208.638C112.304 207.786 112.04 207.125 111.834 207.155Z" fill="#F5F5F5"/>
<path d="M99.7002 175.178C99.7588 175.383 100.727 175.266 101.857 174.928C102.987 174.59 103.852 174.15 103.794 173.944C103.735 173.739 102.767 173.856 101.637 174.194C100.507 174.531 99.6415 174.972 99.7002 175.178Z" fill="#F5F5F5"/>
<path d="M89.4733 167.381C89.6787 167.352 89.6201 165.942 89.3413 164.239C89.0625 162.536 88.6664 161.185 88.4463 161.229C88.2409 161.259 88.2996 162.668 88.5783 164.371C88.8571 166.074 89.2533 167.425 89.4733 167.381Z" fill="#F5F5F5"/>
<path d="M77.0754 174.502C77.2368 174.634 78.2052 173.738 79.2322 172.505C80.2593 171.272 80.9636 170.156 80.8022 170.024C80.6408 169.892 79.6724 170.787 78.6454 172.021C77.6183 173.254 76.914 174.37 77.0754 174.502Z" fill="#F5F5F5"/>
<path d="M84.7342 180.507C84.5435 180.581 84.8809 181.887 85.5118 183.414C86.1281 184.941 86.803 186.116 86.9937 186.042C87.1845 185.969 86.847 184.662 86.2161 183.135C85.5999 181.608 84.925 180.434 84.7342 180.507Z" fill="#F5F5F5"/>
<path d="M83.7222 197.127C83.8689 197.274 84.94 196.422 86.1138 195.218C87.2876 194.014 88.1092 192.913 87.9625 192.766C87.8158 192.619 86.7447 193.471 85.5709 194.675C84.3971 195.879 83.5755 196.98 83.7222 197.127Z" fill="#F5F5F5"/>
<path d="M74.3169 197.92C74.5224 197.876 74.4196 196.598 74.0675 195.072C73.7301 193.545 73.2752 192.341 73.0698 192.385C72.8644 192.429 72.9671 193.706 73.3192 195.233C73.6567 196.76 74.1115 197.964 74.3169 197.92Z" fill="#F5F5F5"/>
<path d="M83.2819 212.675C83.4433 212.807 84.353 211.985 85.4828 211.001C86.5979 210.003 87.5369 209.21 87.4195 209.019C87.3021 208.843 86.143 209.386 84.9839 210.429C83.8101 211.457 83.1352 212.543 83.2966 212.675H83.2819Z" fill="#F5F5F5"/>
<path d="M82.6804 221.719C82.5484 221.881 83.4434 222.864 84.8373 223.672C86.2311 224.494 87.5369 224.788 87.5956 224.582C87.669 224.377 86.5539 223.789 85.2187 223.011C83.8836 222.233 82.8125 221.558 82.6804 221.719Z" fill="#F5F5F5"/>
<path d="M70.5902 223.569C70.3848 223.569 70.1647 224.699 70.106 226.124C70.0474 227.533 70.1794 228.693 70.3848 228.708C70.5902 228.708 70.8103 227.577 70.869 226.153C70.9277 224.743 70.7956 223.584 70.5902 223.569Z" fill="#F5F5F5"/>
<path d="M75.0216 212.704C75.227 212.704 75.359 210.854 75.315 208.593C75.271 206.332 75.0656 204.497 74.8455 204.497C74.6401 204.497 74.508 206.347 74.5521 208.608C74.5961 210.869 74.8015 212.704 75.0216 212.704Z" fill="#F5F5F5"/>
<path d="M72.4389 181.74C72.3509 181.916 73.1138 182.503 74.2583 182.738C75.4027 182.988 76.3417 182.768 76.327 182.562C76.327 182.342 75.4467 182.21 74.4197 181.99C73.3779 181.769 72.5269 181.549 72.4389 181.74Z" fill="#F5F5F5"/>
<path d="M76.6499 150.379C76.4445 150.409 76.4738 151.892 76.7086 153.712C76.958 155.518 77.3102 156.972 77.5302 156.942C77.7356 156.913 77.7063 155.43 77.4715 153.609C77.2221 151.803 76.87 150.35 76.6499 150.379Z" fill="#F5F5F5"/>
<path d="M86.1428 146.665C85.9374 146.607 85.4532 147.605 85.0424 148.897C84.6316 150.189 84.4702 151.305 84.6609 151.364C84.8663 151.422 85.3505 150.424 85.7613 149.132C86.1722 147.84 86.3336 146.724 86.1428 146.665Z" fill="#F5F5F5"/>
<path d="M81.8879 138.634C81.7998 138.825 82.9589 139.574 84.5729 140.043C86.1868 140.528 87.5807 140.528 87.5953 140.322C87.6247 140.102 86.3335 139.779 84.7783 139.309C83.223 138.854 81.9612 138.428 81.8732 138.634H81.8879Z" fill="#F5F5F5"/>
<path d="M74.9042 142.363C75.0949 142.29 74.8455 141.13 74.3466 139.764C73.8331 138.399 73.2609 137.357 73.0702 137.445C72.8794 137.518 73.1289 138.678 73.6277 140.043C74.1412 141.409 74.7134 142.451 74.9042 142.363Z" fill="#F5F5F5"/>
<path d="M60.7305 150.541C60.8625 150.703 62.0656 149.969 63.4301 148.897C64.7947 147.825 65.7924 146.827 65.6603 146.65C65.5283 146.489 64.3251 147.223 62.9606 148.295C61.5961 149.367 60.5984 150.365 60.7305 150.541Z" fill="#F5F5F5"/>
<path d="M65.6604 159.38C65.8658 159.38 66.0859 157.926 66.1446 156.106C66.2033 154.3 66.0712 152.817 65.8658 152.817C65.6604 152.817 65.4403 154.27 65.3816 156.091C65.3229 157.897 65.455 159.38 65.6604 159.38Z" fill="#F5F5F5"/>
<path d="M60.7602 170.112C60.7749 170.317 61.89 170.391 63.2545 170.273C64.619 170.156 65.6901 169.877 65.6754 169.671C65.6607 169.466 64.5456 169.392 63.1811 169.51C61.8313 169.627 60.7455 169.906 60.7602 170.112Z" fill="#F5F5F5"/>
<path d="M54.2457 169.246C54.4218 169.334 55.2581 167.939 55.5809 165.987C55.9183 164.034 55.5809 162.448 55.3755 162.463C55.1554 162.478 55.1407 164.019 54.8179 165.855C54.5245 167.69 54.0403 169.158 54.2457 169.246Z" fill="#F5F5F5"/>
<path d="M55.4486 178.613C55.4046 178.818 56.3436 179.171 57.532 179.406C58.7205 179.641 59.7182 179.655 59.7622 179.45C59.8062 179.244 58.8672 178.892 57.6787 178.657C56.4903 178.422 55.4926 178.407 55.4632 178.613H55.4486Z" fill="#F5F5F5"/>
<path d="M90.0603 133.143C90.1923 133.304 90.7939 132.981 91.1754 132.291C91.5569 131.601 91.4982 130.926 91.2928 130.896C91.0874 130.852 90.8233 131.351 90.5005 131.924C90.1924 132.497 89.9136 132.996 90.0603 133.143Z" fill="#F5F5F5"/>
<path d="M85.9667 131.91C86.1575 131.998 86.627 131.44 87.0231 130.647C87.4193 129.854 87.5807 129.135 87.4046 129.047C87.2139 128.959 86.7444 129.517 86.3482 130.309C85.9521 131.102 85.7907 131.822 85.9667 131.91Z" fill="#F5F5F5"/>
<path d="M101.945 131.087C101.96 131.293 102.62 131.425 103.412 131.366C104.205 131.308 104.835 131.087 104.821 130.882C104.806 130.676 104.146 130.544 103.354 130.603C102.561 130.662 101.93 130.882 101.945 131.087Z" fill="#F5F5F5"/>
<path d="M75.99 105.408C75.99 105.408 76.1513 105.408 76.4301 105.335C76.7089 105.247 77.105 105.1 77.5746 104.806C78.4842 104.249 79.7607 103.015 80.1275 100.989C80.3036 100.02 80.2889 98.9337 80.6264 97.95C80.7878 97.4655 81.0812 97.025 81.5214 96.7167C81.9469 96.4084 82.5191 96.2469 83.1206 96.0707C83.7222 95.8945 84.3971 95.7477 85.028 95.3513C85.6736 94.9549 86.1431 94.2795 86.4072 93.6042C86.9354 92.2387 86.9648 90.7265 87.7717 89.7134C89.5471 87.658 93.2445 89.6547 95.3573 87.2615C96.2523 86.1017 96.2816 84.795 96.6484 83.7966C96.9712 82.7835 97.6314 81.9907 98.3651 81.4475C99.8616 80.3463 101.52 80.4491 102.503 80.7281C103.515 81.0217 103.985 81.4181 104.014 81.3594C104.014 81.3447 103.926 81.2273 103.706 81.0511C103.471 80.8749 103.119 80.64 102.591 80.4491C101.593 80.0674 99.7736 79.8472 98.0569 81.007C97.2206 81.5649 96.4577 82.4459 96.0468 83.5911C95.636 84.6775 95.5333 85.9402 94.8144 86.8211C94.0954 87.702 92.7603 87.8488 91.4104 87.8782C90.7208 87.9076 90.0019 87.9076 89.2536 88.0691C88.5053 88.2159 87.7277 88.5976 87.1848 89.2436C86.1578 90.5943 86.2018 92.1653 85.7176 93.3546C85.4975 93.9565 85.1454 94.4557 84.6612 94.764C84.1624 95.087 83.5608 95.2485 82.9446 95.4247C82.343 95.6009 81.6974 95.7918 81.1399 96.2029C80.5823 96.5993 80.2155 97.2012 80.0395 97.7738C79.6873 98.9484 79.7607 100.005 79.614 100.93C79.3646 102.766 78.2495 103.97 77.4278 104.586C76.5915 105.218 75.9899 105.364 76.0193 105.438L75.99 105.408Z" fill="#455A64"/>
<path d="M105.525 421.042C105.525 421.042 105.554 420.88 105.569 420.557C105.583 420.205 105.613 419.735 105.642 419.148C105.686 417.87 105.759 416.05 105.848 413.759C106.009 409.017 106.229 402.263 106.508 393.924C107.095 377.128 107.887 354.004 108.767 328.472C109.604 302.896 110.132 279.742 110.249 262.976C110.323 254.592 110.323 247.809 110.249 243.126C110.22 240.82 110.19 239.015 110.176 237.723C110.161 237.135 110.146 236.68 110.132 236.313C110.132 235.99 110.102 235.829 110.088 235.829C110.088 235.829 110.058 235.99 110.044 236.313L110.014 237.723C110 239 109.97 240.82 109.941 243.126C109.882 247.868 109.794 254.636 109.692 262.976C109.428 279.728 108.826 302.881 107.99 328.442C107.153 354.004 106.376 377.143 105.95 393.909C105.73 402.293 105.598 409.076 105.525 413.759C105.495 416.064 105.481 417.87 105.466 419.162C105.466 419.75 105.466 420.205 105.466 420.572C105.466 420.895 105.466 421.056 105.495 421.056L105.525 421.042Z" fill="#263238"/>
<path d="M43.8429 422.98C44.0483 423.024 51.8392 381.077 61.2441 329.323C70.649 277.54 78.1024 235.55 77.897 235.52C77.6916 235.491 69.9007 277.408 60.4958 329.191C51.0909 380.945 43.6375 422.95 43.8429 422.994V422.98Z" fill="#263238"/>
<path d="M93.2735 247.633C93.2735 247.633 93.5669 247.824 94.1538 247.765C94.7407 247.706 95.5917 247.354 96.2519 246.502C96.9415 245.665 97.3083 244.447 97.5724 243.155C97.8512 241.863 98.1153 240.439 98.3354 238.941C98.7902 235.931 98.9956 233.171 99.0396 231.189C99.0983 229.192 99.0103 227.959 98.9076 227.959C98.6875 227.959 98.4821 232.863 97.5724 238.824C97.3523 240.321 97.1176 241.731 96.8828 243.023C96.6627 244.3 96.3693 245.416 95.8264 246.179C95.2982 246.943 94.594 247.324 94.0951 247.471C93.5816 247.618 93.2735 247.559 93.2735 247.633Z" fill="#263238"/>
<path d="M96.1349 229.09C96.0615 229.163 96.1789 229.413 96.0615 229.75C95.9441 230.103 95.592 230.367 95.1958 230.088C94.785 229.824 94.8877 229.398 95.1812 229.148C95.4453 228.899 95.724 228.928 95.7681 228.825C95.8267 228.752 95.4893 228.444 94.9171 228.693C94.653 228.811 94.3449 229.06 94.2421 229.501C94.1394 229.956 94.3889 230.47 94.785 230.719C95.1812 230.984 95.7534 231.028 96.1202 230.749C96.487 230.484 96.6044 230.103 96.6044 229.824C96.6044 229.207 96.1935 229.002 96.1495 229.09H96.1349Z" fill="#263238"/>
</svg>
